<svg width="117" height="42" viewBox="0 0 117 42" fill="none" xmlns="http://www.w3.org/2000/svg">
<path d="M62.7793 33H58.3496V7.40625H62.7793V33ZM70.4961 28.5C71.293 28.5 71.9082 28.7285 72.3418 29.1855C72.7754 29.6309 72.9922 30.1934 72.9922 30.873C72.9922 31.541 72.7754 32.0977 72.3418 32.543C71.9082 32.9766 71.293 33.1934 70.4961 33.1934C69.7344 33.1934 69.1309 32.9766 68.6855 32.543C68.2402 32.1094 68.0176 31.5527 68.0176 30.873C68.0176 30.1934 68.2344 29.6309 68.668 29.1855C69.1016 28.7285 69.7109 28.5 70.4961 28.5ZM77.0879 23.3496C77.0879 20.4199 77.7676 18.0703 79.127 16.3008C80.4863 14.5195 82.3086 13.6289 84.5938 13.6289C86.6094 13.6289 88.2383 14.332 89.4805 15.7383V6H93.752V33H89.8848L89.6738 31.0312C88.3965 32.5781 86.6914 33.3516 84.5586 33.3516C82.332 33.3516 80.5273 32.4551 79.1445 30.6621C77.7734 28.8691 77.0879 26.4316 77.0879 23.3496ZM81.3594 23.7188C81.3594 25.6523 81.7285 27.1641 82.4668 28.2539C83.2168 29.332 84.2773 29.8711 85.6484 29.8711C87.3945 29.8711 88.6719 29.0918 89.4805 27.5332V19.4121C88.6953 17.8887 87.4297 17.127 85.6836 17.127C84.3008 17.127 83.2344 17.6777 82.4844 18.7793C81.7344 19.8691 81.3594 21.5156 81.3594 23.7188ZM97.4082 23.3145C97.4082 21.4512 97.7773 19.7754 98.5156 18.2871C99.2539 16.7871 100.291 15.6387 101.627 14.8418C102.963 14.0332 104.498 13.6289 106.232 13.6289C108.799 13.6289 110.879 14.4551 112.473 16.1074C114.078 17.7598 114.945 19.9512 115.074 22.6816L115.092 23.6836C115.092 25.5586 114.729 27.2344 114.002 28.7109C113.287 30.1875 112.256 31.3301 110.908 32.1387C109.572 32.9473 108.025 33.3516 106.268 33.3516C103.584 33.3516 101.434 32.4609 99.8164 30.6797C98.2109 28.8867 97.4082 26.502 97.4082 23.5254V23.3145ZM101.68 23.6836C101.68 25.6406 102.084 27.1758 102.893 28.2891C103.701 29.3906 104.826 29.9414 106.268 29.9414C107.709 29.9414 108.828 29.3789 109.625 28.2539C110.434 27.1289 110.838 25.4824 110.838 23.3145C110.838 21.3926 110.422 19.8691 109.59 18.7441C108.77 17.6191 107.65 17.0566 106.232 17.0566C104.838 17.0566 103.73 17.6133 102.91 18.7266C102.09 19.8281 101.68 21.4805 101.68 23.6836Z" fill="black"/>
<rect y="1" width="40" height="40" rx="8" fill="#0074E2"/>
<path d="M16.4722 29.5456L9.32217 21.7456C8.89261 21.277 8.89261 20.5172 9.32217 20.0485L10.8778 18.3515C11.3073 17.8828 12.0038 17.8828 12.4334 18.3515L17.25 23.6059L27.5666 12.3515C27.9961 11.8828 28.6927 11.8828 29.1222 12.3515L30.6778 14.0485C31.1074 14.5171 31.1074 15.2769 30.6778 15.7456L18.0278 29.5456C17.5982 30.0142 16.9017 30.0142 16.4722 29.5456Z" fill="white"/>
</svg>
