<svg width="24" height="24" viewBox="0 0 24 24" fill="none" xmlns="http://www.w3.org/2000/svg">
<path d="M11.7802 5.84478L9.15516 3.21978C8.86266 2.9269 8.38716 2.9269 8.09466 3.21978L5.46966 5.84478C5.17678 6.13765 5.17678 6.6124 5.46966 6.90528C5.76216 7.19815 6.23766 7.19815 6.53016 6.90528L7.87491 5.56053V20.25C7.87491 20.664 8.21091 21 8.62491 21C9.03891 21 9.37491 20.664 9.37491 20.25V5.56053L10.7197 6.90528C10.8659 7.0519 11.0579 7.12503 11.2499 7.12503C11.4419 7.12503 11.6339 7.0519 11.7802 6.90528C12.073 6.6124 12.073 6.13765 11.7802 5.84478Z" fill="#808080"/>
<path d="M18.5302 17.0947C18.2373 16.8019 17.7625 16.8019 17.4697 17.0947L16.1249 18.4395V3.75C16.1249 3.336 15.7889 3 15.3749 3C14.9609 3 14.6249 3.336 14.6249 3.75V18.4395L13.2802 17.0947C12.9873 16.8019 12.5122 16.8019 12.2197 17.0947C11.9268 17.3876 11.9268 17.8624 12.2197 18.1553L14.8447 20.7803C14.9913 20.9269 15.1829 21 15.3749 21C15.5669 21 15.7585 20.9269 15.9052 20.7803L18.5302 18.1553C18.823 17.8624 18.823 17.3876 18.5302 17.0947Z" fill="#808080"/>
</svg>
